<svg xmlns="http://www.w3.org/2000/svg" xmlns:xlink="http://www.w3.org/1999/xlink" width="1000" zoomAndPan="magnify" viewBox="0 0 750 225" height="300" preserveAspectRatio="xMidYMid meet" version="1.0"><defs><g/><clipPath id="685701ad54"><rect x="0" width="162" y="0" height="161"/></clipPath><clipPath id="ce1f2165a2"><rect x="0" width="465" y="0" height="160"/></clipPath></defs><g transform="matrix(1, 0, 0, 1, 56, 45)"><g clip-path="url(#685701ad54)"><g fill="#ffbd59" fill-opacity="1"><g transform="translate(1.341592, 111.251994)"><g><path d="M 77.375 -40.421875 L 7.21875 -102.390625 L 7.21875 -71.125 L 42.234375 -40.703125 L 7.21875 -10 L 7.21875 20.984375 Z M 77.375 -40.421875 "/></g></g></g><g fill="#ffbd59" fill-opacity="1"><g transform="translate(81.221103, 111.251994)"><g><path d="M 77.375 -40.421875 L 7.21875 -102.390625 L 7.21875 -71.125 L 42.234375 -40.703125 L 7.21875 -10 L 7.21875 20.984375 Z M 77.375 -40.421875 "/></g></g></g></g></g><g transform="matrix(1, 0, 0, 1, 231, 30)"><g clip-path="url(#ce1f2165a2)"><g fill="#ffffff" fill-opacity="1"><g transform="translate(0.971577, 126.403631)"><g><path d="M 94.6875 -91.421875 L 94.6875 0 L 73.53125 0 L 73.53125 -37.484375 L 32 -37.484375 L 32 0 L 10.84375 0 L 10.84375 -91.421875 L 32 -91.421875 L 32 -55.375 L 73.53125 -55.375 L 73.53125 -91.421875 Z M 94.6875 -91.421875 "/></g></g></g><g fill="#ffffff" fill-opacity="1"><g transform="translate(107.8028, 126.403631)"><g><path d="M 71.046875 -19.59375 L 28.59375 -19.59375 L 20.5 0 L -1.171875 0 L 39.5625 -91.421875 L 60.46875 -91.421875 L 101.34375 0 L 79.140625 0 Z M 64.375 -35.65625 L 49.890625 -70.65625 L 35.390625 -35.65625 Z M 64.375 -35.65625 "/></g></g></g><g fill="#ffffff" fill-opacity="1"><g transform="translate(209.148806, 126.403631)"><g><path d="M 40.875 1.5625 C 33.644531 1.5625 26.65625 0.582031 19.90625 -1.375 C 13.164062 -3.332031 7.75 -5.878906 3.65625 -9.015625 L 10.84375 -24.9375 C 14.757812 -22.070312 19.414062 -19.765625 24.8125 -18.015625 C 30.207031 -16.273438 35.601562 -15.40625 41 -15.40625 C 47.007812 -15.40625 51.453125 -16.296875 54.328125 -18.078125 C 57.203125 -19.867188 58.640625 -22.242188 58.640625 -25.203125 C 58.640625 -27.378906 57.789062 -29.1875 56.09375 -30.625 C 54.394531 -32.0625 52.21875 -33.210938 49.5625 -34.078125 C 46.90625 -34.953125 43.3125 -35.910156 38.78125 -36.953125 C 31.820312 -38.609375 26.117188 -40.265625 21.671875 -41.921875 C 17.234375 -43.578125 13.425781 -46.234375 10.25 -49.890625 C 7.070312 -53.546875 5.484375 -58.421875 5.484375 -64.515625 C 5.484375 -69.828125 6.921875 -74.632812 9.796875 -78.9375 C 12.671875 -83.25 17 -86.664062 22.78125 -89.1875 C 28.570312 -91.71875 35.648438 -92.984375 44.015625 -92.984375 C 49.847656 -92.984375 55.546875 -92.285156 61.109375 -90.890625 C 66.679688 -89.492188 71.5625 -87.492188 75.75 -84.890625 L 69.21875 -68.828125 C 60.769531 -73.609375 52.320312 -76 43.875 -76 C 37.957031 -76 33.582031 -75.039062 30.75 -73.125 C 27.925781 -71.21875 26.515625 -68.695312 26.515625 -65.5625 C 26.515625 -62.425781 28.144531 -60.09375 31.40625 -58.5625 C 34.675781 -57.039062 39.660156 -55.539062 46.359375 -54.0625 C 53.328125 -52.40625 59.03125 -50.75 63.46875 -49.09375 C 67.90625 -47.445312 71.710938 -44.835938 74.890625 -41.265625 C 78.066406 -37.691406 79.65625 -32.859375 79.65625 -26.765625 C 79.65625 -21.546875 78.195312 -16.78125 75.28125 -12.46875 C 72.363281 -8.15625 67.988281 -4.738281 62.15625 -2.21875 C 56.320312 0.300781 49.226562 1.5625 40.875 1.5625 Z M 40.875 1.5625 "/></g></g></g><g fill="#ffffff" fill-opacity="1"><g transform="translate(293.777946, 126.403631)"><g><path d="M 29.78125 -74.171875 L 0.515625 -74.171875 L 0.515625 -91.421875 L 80.1875 -91.421875 L 80.1875 -74.171875 L 50.9375 -74.171875 L 50.9375 0 L 29.78125 0 Z M 29.78125 -74.171875 "/></g></g></g><g fill="#ffffff" fill-opacity="1"><g transform="translate(375.795056, 126.403631)"><g><path d="M 81.625 -16.984375 L 81.625 0 L 10.84375 0 L 10.84375 -91.421875 L 79.921875 -91.421875 L 79.921875 -74.4375 L 31.859375 -74.4375 L 31.859375 -54.59375 L 74.3125 -54.59375 L 74.3125 -38.140625 L 31.859375 -38.140625 L 31.859375 -16.984375 Z M 81.625 -16.984375 "/></g></g></g></g></g></svg>