<svg xmlns="http://www.w3.org/2000/svg" xmlns:xlink="http://www.w3.org/1999/xlink" width="1200" zoomAndPan="magnify" viewBox="0 0 900 809.999993" height="1080" preserveAspectRatio="xMidYMid meet" version="1.0"><defs><g/><clipPath id="d8f2f2846c"><rect x="0" width="455" y="0" height="453"/></clipPath><clipPath id="89fb93dd8a"><rect x="0" width="683" y="0" height="236"/></clipPath></defs><g transform="matrix(1, 0, 0, 1, 217, 74)"><g clip-path="url(#d8f2f2846c)"><g fill="#ffbd59" fill-opacity="1"><g transform="translate(1.34776, 314.082817)"><g><path d="M 218.96875 -114.390625 L 20.4375 -289.71875 L 20.4375 -201.265625 L 119.5 -115.1875 L 20.4375 -28.296875 L 20.4375 59.359375 Z M 218.96875 -114.390625 "/></g></g></g><g fill="#ffbd59" fill-opacity="1"><g transform="translate(227.388549, 314.082817)"><g><path d="M 218.96875 -114.390625 L 20.4375 -289.71875 L 20.4375 -201.265625 L 119.5 -115.1875 L 20.4375 -28.296875 L 20.4375 59.359375 Z M 218.96875 -114.390625 "/></g></g></g></g></g><g transform="matrix(1, 0, 0, 1, 113, 486)"><g clip-path="url(#89fb93dd8a)"><g fill="#ffffff" fill-opacity="1"><g transform="translate(0.548599, 186.262372)"><g><path d="M 139.09375 -134.296875 L 139.09375 0 L 108.015625 0 L 108.015625 -55.0625 L 47 -55.0625 L 47 0 L 15.921875 0 L 15.921875 -134.296875 L 47 -134.296875 L 47 -81.34375 L 108.015625 -81.34375 L 108.015625 -134.296875 Z M 139.09375 -134.296875 "/></g></g></g><g fill="#ffffff" fill-opacity="1"><g transform="translate(157.490608, 186.262372)"><g><path d="M 104.375 -28.78125 L 42.015625 -28.78125 L 30.125 0 L -1.734375 0 L 58.140625 -134.296875 L 88.828125 -134.296875 L 148.890625 0 L 116.265625 0 Z M 94.59375 -52.375 L 73.296875 -103.796875 L 52 -52.375 Z M 94.59375 -52.375 "/></g></g></g><g fill="#ffffff" fill-opacity="1"><g transform="translate(306.374477, 186.262372)"><g><path d="M 60.046875 2.296875 C 49.429688 2.296875 39.164062 0.855469 29.25 -2.015625 C 19.34375 -4.890625 11.382812 -8.628906 5.375 -13.234375 L 15.921875 -36.640625 C 21.679688 -32.421875 28.523438 -29.03125 36.453125 -26.46875 C 44.378906 -23.914062 52.3125 -22.640625 60.25 -22.640625 C 69.070312 -22.640625 75.59375 -23.945312 79.8125 -26.5625 C 84.03125 -29.1875 86.140625 -32.675781 86.140625 -37.03125 C 86.140625 -40.226562 84.890625 -42.878906 82.390625 -44.984375 C 79.898438 -47.097656 76.703125 -48.796875 72.796875 -50.078125 C 68.898438 -51.359375 63.628906 -52.765625 56.984375 -54.296875 C 46.753906 -56.722656 38.375 -59.148438 31.84375 -61.578125 C 25.320312 -64.015625 19.726562 -67.914062 15.0625 -73.28125 C 10.394531 -78.65625 8.0625 -85.820312 8.0625 -94.78125 C 8.0625 -102.582031 10.171875 -109.644531 14.390625 -115.96875 C 18.609375 -122.300781 24.96875 -127.320312 33.46875 -131.03125 C 41.976562 -134.75 52.375 -136.609375 64.65625 -136.609375 C 73.226562 -136.609375 81.601562 -135.582031 89.78125 -133.53125 C 97.96875 -131.488281 105.132812 -128.546875 111.28125 -124.703125 L 101.6875 -101.109375 C 89.28125 -108.140625 76.875 -111.65625 64.46875 -111.65625 C 55.769531 -111.65625 49.34375 -110.25 45.1875 -107.4375 C 41.03125 -104.625 38.953125 -100.914062 38.953125 -96.3125 C 38.953125 -91.707031 41.347656 -88.285156 46.140625 -86.046875 C 50.941406 -83.804688 58.265625 -81.601562 68.109375 -79.4375 C 78.335938 -77 86.710938 -74.566406 93.234375 -72.140625 C 99.765625 -69.710938 105.363281 -65.875 110.03125 -60.625 C 114.695312 -55.382812 117.03125 -48.285156 117.03125 -39.328125 C 117.03125 -31.648438 114.890625 -24.644531 110.609375 -18.3125 C 106.328125 -11.988281 99.898438 -6.972656 91.328125 -3.265625 C 82.753906 0.441406 72.328125 2.296875 60.046875 2.296875 Z M 60.046875 2.296875 "/></g></g></g><g fill="#ffffff" fill-opacity="1"><g transform="translate(430.700184, 186.262372)"><g><path d="M 43.75 -108.96875 L 0.765625 -108.96875 L 0.765625 -134.296875 L 117.796875 -134.296875 L 117.796875 -108.96875 L 74.828125 -108.96875 L 74.828125 0 L 43.75 0 Z M 43.75 -108.96875 "/></g></g></g><g fill="#ffffff" fill-opacity="1"><g transform="translate(551.188648, 186.262372)"><g><path d="M 119.90625 -24.9375 L 119.90625 0 L 15.921875 0 L 15.921875 -134.296875 L 117.421875 -134.296875 L 117.421875 -109.359375 L 46.8125 -109.359375 L 46.8125 -80.203125 L 109.171875 -80.203125 L 109.171875 -56.015625 L 46.8125 -56.015625 L 46.8125 -24.9375 Z M 119.90625 -24.9375 "/></g></g></g></g></g></svg>